<mxfile host="app.diagrams.net" agent="Mozilla/5.0 (Macintosh; Intel Mac OS X 10_15_7) AppleWebKit/537.36 (KHTML, like Gecko) Chrome/139.0.0.0 Safari/537.36" version="28.0.7">
  <diagram name="Page-1" id="Htb_Bjqr6kKEwQDJrxKX">
    <mxGraphModel dx="927" dy="489" grid="1" gridSize="10" guides="1" tooltips="1" connect="1" arrows="1" fold="1" page="1" pageScale="1" pageWidth="850" pageHeight="1100" math="0" shadow="0">
      <root>
        <mxCell id="0" />
        <mxCell id="1" parent="0" />
        <mxCell id="gRg_E6RwtQNj_quDHkZ7-2" style="edgeStyle=orthogonalEdgeStyle;rounded=0;orthogonalLoop=1;jettySize=auto;html=1;exitX=1;exitY=0.5;exitDx=0;exitDy=0;" parent="1" source="gRg_E6RwtQNj_quDHkZ7-1" edge="1">
          <mxGeometry relative="1" as="geometry">
            <mxPoint x="290.1052631578948" y="369.8947368421053" as="targetPoint" />
          </mxGeometry>
        </mxCell>
        <mxCell id="gRg_E6RwtQNj_quDHkZ7-9" style="edgeStyle=orthogonalEdgeStyle;rounded=0;orthogonalLoop=1;jettySize=auto;html=1;exitX=1;exitY=0.5;exitDx=0;exitDy=0;entryX=0;entryY=1;entryDx=0;entryDy=0;" parent="1" source="gRg_E6RwtQNj_quDHkZ7-1" target="gRg_E6RwtQNj_quDHkZ7-3" edge="1">
          <mxGeometry relative="1" as="geometry" />
        </mxCell>
        <mxCell id="gRg_E6RwtQNj_quDHkZ7-1" value="Macro(Country)" style="rounded=0;whiteSpace=wrap;html=1;" parent="1" vertex="1">
          <mxGeometry x="240" y="360" width="90" height="20" as="geometry" />
        </mxCell>
        <mxCell id="gRg_E6RwtQNj_quDHkZ7-7" value="" style="group" parent="1" vertex="1" connectable="0">
          <mxGeometry x="350" y="350" width="60" height="40" as="geometry" />
        </mxCell>
        <mxCell id="gRg_E6RwtQNj_quDHkZ7-6" value="LISA" style="rounded=0;whiteSpace=wrap;html=1;movable=1;resizable=1;rotatable=1;deletable=1;editable=1;locked=0;connectable=1;" parent="gRg_E6RwtQNj_quDHkZ7-7" vertex="1">
          <mxGeometry y="20" width="60" height="20" as="geometry" />
        </mxCell>
        <mxCell id="gRg_E6RwtQNj_quDHkZ7-3" value="Getis" style="rounded=0;whiteSpace=wrap;html=1;movable=1;resizable=1;rotatable=1;deletable=1;editable=1;locked=0;connectable=1;" parent="gRg_E6RwtQNj_quDHkZ7-7" vertex="1">
          <mxGeometry width="60" height="20" as="geometry" />
        </mxCell>
        <mxCell id="gRg_E6RwtQNj_quDHkZ7-10" value="EDA" style="rounded=0;whiteSpace=wrap;html=1;" parent="1" vertex="1">
          <mxGeometry x="430" y="360" width="40" height="20" as="geometry" />
        </mxCell>
        <mxCell id="gRg_E6RwtQNj_quDHkZ7-11" style="edgeStyle=orthogonalEdgeStyle;rounded=0;orthogonalLoop=1;jettySize=auto;html=1;exitX=1;exitY=1;exitDx=0;exitDy=0;entryX=0;entryY=0.5;entryDx=0;entryDy=0;" parent="1" source="gRg_E6RwtQNj_quDHkZ7-3" target="gRg_E6RwtQNj_quDHkZ7-10" edge="1">
          <mxGeometry relative="1" as="geometry" />
        </mxCell>
        <mxCell id="gRg_E6RwtQNj_quDHkZ7-18" value="" style="group" parent="1" vertex="1" connectable="0">
          <mxGeometry x="240" y="300" width="240" height="30" as="geometry" />
        </mxCell>
        <mxCell id="gRg_E6RwtQNj_quDHkZ7-14" style="edgeStyle=orthogonalEdgeStyle;rounded=0;orthogonalLoop=1;jettySize=auto;html=1;exitX=1;exitY=0.5;exitDx=0;exitDy=0;entryX=0;entryY=0.5;entryDx=0;entryDy=0;" parent="gRg_E6RwtQNj_quDHkZ7-18" source="gRg_E6RwtQNj_quDHkZ7-12" target="gRg_E6RwtQNj_quDHkZ7-13" edge="1">
          <mxGeometry relative="1" as="geometry" />
        </mxCell>
        <mxCell id="gRg_E6RwtQNj_quDHkZ7-12" value="Micro(County)" style="rounded=0;whiteSpace=wrap;html=1;" parent="gRg_E6RwtQNj_quDHkZ7-18" vertex="1">
          <mxGeometry y="5" width="80" height="20" as="geometry" />
        </mxCell>
        <mxCell id="gRg_E6RwtQNj_quDHkZ7-16" style="edgeStyle=orthogonalEdgeStyle;rounded=0;orthogonalLoop=1;jettySize=auto;html=1;exitX=1;exitY=0.5;exitDx=0;exitDy=0;entryX=0;entryY=0.5;entryDx=0;entryDy=0;" parent="gRg_E6RwtQNj_quDHkZ7-18" source="gRg_E6RwtQNj_quDHkZ7-13" target="gRg_E6RwtQNj_quDHkZ7-15" edge="1">
          <mxGeometry relative="1" as="geometry" />
        </mxCell>
        <mxCell id="gRg_E6RwtQNj_quDHkZ7-13" value="LISA" style="rounded=0;whiteSpace=wrap;html=1;" parent="gRg_E6RwtQNj_quDHkZ7-18" vertex="1">
          <mxGeometry x="100" y="5" width="40" height="20" as="geometry" />
        </mxCell>
        <mxCell id="gRg_E6RwtQNj_quDHkZ7-15" value="LISA map + Facilities" style="rounded=0;whiteSpace=wrap;html=1;" parent="gRg_E6RwtQNj_quDHkZ7-18" vertex="1">
          <mxGeometry x="160" width="80" height="30" as="geometry" />
        </mxCell>
        <mxCell id="gRg_E6RwtQNj_quDHkZ7-20" style="rounded=0;orthogonalLoop=1;jettySize=auto;html=1;entryX=0.5;entryY=1;entryDx=0;entryDy=0;" parent="1" source="gRg_E6RwtQNj_quDHkZ7-3" target="gRg_E6RwtQNj_quDHkZ7-12" edge="1">
          <mxGeometry relative="1" as="geometry" />
        </mxCell>
        <mxCell id="Kj-LtxHB0f9_ngjV7_MZ-6" style="edgeStyle=orthogonalEdgeStyle;rounded=0;orthogonalLoop=1;jettySize=auto;html=1;exitX=1;exitY=0.5;exitDx=0;exitDy=0;" parent="1" source="Kj-LtxHB0f9_ngjV7_MZ-2" edge="1">
          <mxGeometry relative="1" as="geometry">
            <mxPoint x="350" y="480.2380952380952" as="targetPoint" />
          </mxGeometry>
        </mxCell>
        <mxCell id="Kj-LtxHB0f9_ngjV7_MZ-2" value="Macro(Country)" style="rounded=0;whiteSpace=wrap;html=1;" parent="1" vertex="1">
          <mxGeometry x="240" y="470" width="90" height="20" as="geometry" />
        </mxCell>
        <mxCell id="Kj-LtxHB0f9_ngjV7_MZ-3" value="" style="group" parent="1" vertex="1" connectable="0">
          <mxGeometry x="350" y="460" width="60" height="40" as="geometry" />
        </mxCell>
        <mxCell id="Kj-LtxHB0f9_ngjV7_MZ-4" value="LISA" style="rounded=0;whiteSpace=wrap;html=1;movable=1;resizable=1;rotatable=1;deletable=1;editable=1;locked=0;connectable=1;" parent="Kj-LtxHB0f9_ngjV7_MZ-3" vertex="1">
          <mxGeometry y="20" width="60" height="20" as="geometry" />
        </mxCell>
        <mxCell id="Kj-LtxHB0f9_ngjV7_MZ-5" value="Getis" style="rounded=0;whiteSpace=wrap;html=1;movable=1;resizable=1;rotatable=1;deletable=1;editable=1;locked=0;connectable=1;" parent="Kj-LtxHB0f9_ngjV7_MZ-3" vertex="1">
          <mxGeometry width="60" height="20" as="geometry" />
        </mxCell>
        <mxCell id="Kj-LtxHB0f9_ngjV7_MZ-7" value="熱點縣市分布" style="rounded=0;whiteSpace=wrap;html=1;" parent="1" vertex="1">
          <mxGeometry x="440" y="460" width="80" height="20" as="geometry" />
        </mxCell>
        <mxCell id="Kj-LtxHB0f9_ngjV7_MZ-37" style="edgeStyle=orthogonalEdgeStyle;rounded=0;orthogonalLoop=1;jettySize=auto;html=1;entryX=0.5;entryY=0;entryDx=0;entryDy=0;" parent="1" source="Kj-LtxHB0f9_ngjV7_MZ-8" target="Kj-LtxHB0f9_ngjV7_MZ-22" edge="1">
          <mxGeometry relative="1" as="geometry" />
        </mxCell>
        <mxCell id="Kj-LtxHB0f9_ngjV7_MZ-8" value="縣市特徵相似" style="rounded=0;whiteSpace=wrap;html=1;" parent="1" vertex="1">
          <mxGeometry x="440" y="480" width="80" height="20" as="geometry" />
        </mxCell>
        <mxCell id="Kj-LtxHB0f9_ngjV7_MZ-50" style="edgeStyle=orthogonalEdgeStyle;rounded=0;orthogonalLoop=1;jettySize=auto;html=1;entryX=0;entryY=0.5;entryDx=0;entryDy=0;" parent="1" source="Kj-LtxHB0f9_ngjV7_MZ-9" target="Kj-LtxHB0f9_ngjV7_MZ-40" edge="1">
          <mxGeometry relative="1" as="geometry" />
        </mxCell>
        <mxCell id="Kj-LtxHB0f9_ngjV7_MZ-9" value="北中南東區" style="rounded=0;whiteSpace=wrap;html=1;" parent="1" vertex="1">
          <mxGeometry x="250" y="590" width="80" height="20" as="geometry" />
        </mxCell>
        <mxCell id="Kj-LtxHB0f9_ngjV7_MZ-22" value="各縣市GI+設施數地圖" style="rounded=0;whiteSpace=wrap;html=1;movable=1;resizable=1;rotatable=1;deletable=1;editable=1;locked=0;connectable=1;" parent="1" vertex="1">
          <mxGeometry x="420" y="540" width="120" height="20" as="geometry" />
        </mxCell>
        <mxCell id="Kj-LtxHB0f9_ngjV7_MZ-43" style="edgeStyle=orthogonalEdgeStyle;rounded=0;orthogonalLoop=1;jettySize=auto;html=1;entryX=0.5;entryY=1;entryDx=0;entryDy=0;" parent="1" source="Kj-LtxHB0f9_ngjV7_MZ-24" target="Kj-LtxHB0f9_ngjV7_MZ-25" edge="1">
          <mxGeometry relative="1" as="geometry" />
        </mxCell>
        <mxCell id="Kj-LtxHB0f9_ngjV7_MZ-24" value="各縣市設施數、人車事故" style="rounded=0;whiteSpace=wrap;html=1;movable=1;resizable=1;rotatable=1;deletable=1;editable=1;locked=0;connectable=1;" parent="1" vertex="1">
          <mxGeometry x="410" y="620" width="140" height="20" as="geometry" />
        </mxCell>
        <mxCell id="Kj-LtxHB0f9_ngjV7_MZ-25" value="各縣市人車事故比" style="rounded=0;whiteSpace=wrap;html=1;movable=1;resizable=1;rotatable=1;deletable=1;editable=1;locked=0;connectable=1;" parent="1" vertex="1">
          <mxGeometry x="430" y="560" width="100" height="20" as="geometry" />
        </mxCell>
        <mxCell id="Kj-LtxHB0f9_ngjV7_MZ-27" style="edgeStyle=orthogonalEdgeStyle;rounded=0;orthogonalLoop=1;jettySize=auto;html=1;exitX=1;exitY=0;exitDx=0;exitDy=0;entryX=0;entryY=0;entryDx=0;entryDy=0;" parent="1" source="Kj-LtxHB0f9_ngjV7_MZ-4" target="Kj-LtxHB0f9_ngjV7_MZ-8" edge="1">
          <mxGeometry relative="1" as="geometry" />
        </mxCell>
        <mxCell id="Kj-LtxHB0f9_ngjV7_MZ-35" value="&lt;font style=&quot;font-size: 9px;&quot;&gt;篩選縣市(北中南東)&lt;/font&gt;" style="rounded=1;whiteSpace=wrap;html=1;" parent="1" vertex="1">
          <mxGeometry x="490" y="510" width="90" height="20" as="geometry" />
        </mxCell>
        <mxCell id="Kj-LtxHB0f9_ngjV7_MZ-44" value="&lt;font style=&quot;font-size: 9px;&quot;&gt;解釋分布&lt;/font&gt;" style="rounded=1;whiteSpace=wrap;html=1;" parent="1" vertex="1">
          <mxGeometry x="490" y="590" width="50" height="20" as="geometry" />
        </mxCell>
        <mxCell id="Kj-LtxHB0f9_ngjV7_MZ-21" style="edgeStyle=orthogonalEdgeStyle;rounded=0;orthogonalLoop=1;jettySize=auto;html=1;exitX=1;exitY=0.5;exitDx=0;exitDy=0;" parent="1" edge="1">
          <mxGeometry relative="1" as="geometry">
            <mxPoint x="399.567619047619" y="620.2380952380952" as="targetPoint" />
            <mxPoint x="399.52" y="620" as="sourcePoint" />
          </mxGeometry>
        </mxCell>
        <mxCell id="Kj-LtxHB0f9_ngjV7_MZ-51" style="edgeStyle=orthogonalEdgeStyle;rounded=0;orthogonalLoop=1;jettySize=auto;html=1;entryX=0.5;entryY=1;entryDx=0;entryDy=0;" parent="1" source="Kj-LtxHB0f9_ngjV7_MZ-40" target="Kj-LtxHB0f9_ngjV7_MZ-25" edge="1">
          <mxGeometry relative="1" as="geometry" />
        </mxCell>
        <mxCell id="Kj-LtxHB0f9_ngjV7_MZ-40" value="LISA" style="rounded=0;whiteSpace=wrap;html=1;movable=1;resizable=1;rotatable=1;deletable=1;editable=1;locked=0;connectable=1;" parent="1" vertex="1">
          <mxGeometry x="350" y="590" width="60" height="20" as="geometry" />
        </mxCell>
        <mxCell id="2GJyWl8LzV7lVSuW279L-1" style="edgeStyle=orthogonalEdgeStyle;rounded=0;orthogonalLoop=1;jettySize=auto;html=1;exitX=1;exitY=0.5;exitDx=0;exitDy=0;" edge="1" parent="1" source="2GJyWl8LzV7lVSuW279L-2">
          <mxGeometry relative="1" as="geometry">
            <mxPoint x="350" y="700.2380952380952" as="targetPoint" />
          </mxGeometry>
        </mxCell>
        <mxCell id="2GJyWl8LzV7lVSuW279L-2" value="Macro(Country)" style="rounded=0;whiteSpace=wrap;html=1;" vertex="1" parent="1">
          <mxGeometry x="240" y="690" width="90" height="20" as="geometry" />
        </mxCell>
        <mxCell id="2GJyWl8LzV7lVSuW279L-3" value="" style="group" vertex="1" connectable="0" parent="1">
          <mxGeometry x="350" y="680" width="60" height="40" as="geometry" />
        </mxCell>
        <mxCell id="2GJyWl8LzV7lVSuW279L-4" value="LISA" style="rounded=0;whiteSpace=wrap;html=1;movable=1;resizable=1;rotatable=1;deletable=1;editable=1;locked=0;connectable=1;" vertex="1" parent="2GJyWl8LzV7lVSuW279L-3">
          <mxGeometry y="20" width="60" height="20" as="geometry" />
        </mxCell>
        <mxCell id="2GJyWl8LzV7lVSuW279L-5" value="Getis" style="rounded=0;whiteSpace=wrap;html=1;movable=1;resizable=1;rotatable=1;deletable=1;editable=1;locked=0;connectable=1;" vertex="1" parent="2GJyWl8LzV7lVSuW279L-3">
          <mxGeometry width="60" height="20" as="geometry" />
        </mxCell>
        <mxCell id="2GJyWl8LzV7lVSuW279L-24" style="edgeStyle=orthogonalEdgeStyle;rounded=0;orthogonalLoop=1;jettySize=auto;html=1;entryX=0.5;entryY=0;entryDx=0;entryDy=0;" edge="1" parent="1" source="2GJyWl8LzV7lVSuW279L-6" target="2GJyWl8LzV7lVSuW279L-23">
          <mxGeometry relative="1" as="geometry" />
        </mxCell>
        <mxCell id="2GJyWl8LzV7lVSuW279L-6" value="EDA" style="rounded=0;whiteSpace=wrap;html=1;" vertex="1" parent="1">
          <mxGeometry x="440" y="685" width="80" height="25" as="geometry" />
        </mxCell>
        <mxCell id="2GJyWl8LzV7lVSuW279L-11" value="GI + Facilities Map" style="rounded=0;whiteSpace=wrap;html=1;movable=1;resizable=1;rotatable=1;deletable=1;editable=1;locked=0;connectable=1;" vertex="1" parent="1">
          <mxGeometry x="270" y="750" width="120" height="20" as="geometry" />
        </mxCell>
        <mxCell id="2GJyWl8LzV7lVSuW279L-14" value="Pedestrian-Vehicle Analyze" style="rounded=0;whiteSpace=wrap;html=1;movable=1;resizable=1;rotatable=1;deletable=1;editable=1;locked=0;connectable=1;" vertex="1" parent="1">
          <mxGeometry x="240" y="770" width="150" height="20" as="geometry" />
        </mxCell>
        <mxCell id="2GJyWl8LzV7lVSuW279L-15" style="edgeStyle=orthogonalEdgeStyle;rounded=0;orthogonalLoop=1;jettySize=auto;html=1;exitX=1;exitY=0;exitDx=0;exitDy=0;entryX=0;entryY=0;entryDx=0;entryDy=0;" edge="1" parent="1" source="2GJyWl8LzV7lVSuW279L-4">
          <mxGeometry relative="1" as="geometry">
            <mxPoint x="440" y="700" as="targetPoint" />
          </mxGeometry>
        </mxCell>
        <mxCell id="2GJyWl8LzV7lVSuW279L-16" value="&lt;div&gt;&lt;font style=&quot;font-size: 9px;&quot;&gt;Filter County (EWSN)&lt;/font&gt;&lt;/div&gt;" style="rounded=1;whiteSpace=wrap;html=1;" vertex="1" parent="1">
          <mxGeometry x="490" y="720" width="90" height="20" as="geometry" />
        </mxCell>
        <mxCell id="2GJyWl8LzV7lVSuW279L-18" style="edgeStyle=orthogonalEdgeStyle;rounded=0;orthogonalLoop=1;jettySize=auto;html=1;exitX=1;exitY=0.5;exitDx=0;exitDy=0;" edge="1" parent="1">
          <mxGeometry relative="1" as="geometry">
            <mxPoint x="399.567619047619" y="840.2380952380952" as="targetPoint" />
            <mxPoint x="399.52" y="840" as="sourcePoint" />
          </mxGeometry>
        </mxCell>
        <mxCell id="2GJyWl8LzV7lVSuW279L-25" style="edgeStyle=orthogonalEdgeStyle;rounded=0;orthogonalLoop=1;jettySize=auto;html=1;entryX=1;entryY=0.5;entryDx=0;entryDy=0;" edge="1" parent="1" source="2GJyWl8LzV7lVSuW279L-23" target="2GJyWl8LzV7lVSuW279L-14">
          <mxGeometry relative="1" as="geometry" />
        </mxCell>
        <mxCell id="2GJyWl8LzV7lVSuW279L-23" value="Micro(County)" style="rounded=0;whiteSpace=wrap;html=1;" vertex="1" parent="1">
          <mxGeometry x="435" y="770" width="90" height="20" as="geometry" />
        </mxCell>
      </root>
    </mxGraphModel>
  </diagram>
</mxfile>
